<svg width="43" height="21" viewBox="0 0 43 21" fill="none" xmlns="http://www.w3.org/2000/svg">
<g clip-path="url(#clip0_3805_228)">
<path d="M0.668457 0.691406H42.9949V20.6914H0.668457V0.691406Z" fill="black"/>
<path d="M9.38935 6.81793C9.7967 6.68215 10.2312 6.60973 10.682 6.60973C12.6554 6.60973 14.3029 8.01102 14.6795 9.87397L17.4766 9.30368C16.8357 6.13902 14.0368 3.75647 10.682 3.75647C9.91257 3.75647 9.17572 3.88139 8.48413 4.11313L9.38935 6.81793Z" fill="#FFCB05"/>
<path d="M6.08885 15.881L7.98077 13.7429C7.1371 12.9952 6.60483 11.9035 6.60483 10.6869C6.60483 9.47206 7.1371 8.38036 7.98077 7.63445L6.08885 5.49451C4.65498 6.76544 3.74976 8.62115 3.74976 10.6869C3.74976 12.7544 4.65498 14.6101 6.08885 15.881Z" fill="#00A4E0"/>
<path d="M14.6795 11.5052C14.3011 13.3664 12.6554 14.7659 10.6838 14.7659C10.2312 14.7659 9.79489 14.6934 9.38935 14.5559L8.48413 17.2643C9.17572 17.4942 9.91438 17.6191 10.6838 17.6191C14.035 17.6191 16.8321 15.2402 17.4766 12.0792L14.6795 11.5052Z" fill="#EF4123"/>
<path d="M19.9224 13.8316C19.8301 13.6831 19.707 13.4459 19.6309 13.2703C19.1874 12.242 19.1675 11.1775 19.5404 10.1564C19.9514 9.03569 20.7371 8.17935 21.7528 7.74122C23.0291 7.19266 24.4395 7.29948 25.6633 8.02546C26.44 8.47083 26.9904 9.1588 27.4086 10.1328C27.4611 10.2577 27.5082 10.3899 27.5553 10.504L19.9224 13.8316ZM22.4715 9.39416C21.5645 9.78341 21.0974 10.6343 21.1952 11.6301L25.0333 9.97713C24.3725 9.20226 23.5143 8.94517 22.4715 9.39416V9.39416ZM25.5113 12.9897C25.5094 12.9897 25.5094 12.9915 25.5094 12.9915L25.4298 12.9372C25.1999 13.3083 24.8432 13.6107 24.3924 13.8062C23.5343 14.1792 22.7395 14.0832 22.1674 13.5817L22.1149 13.6614C22.1149 13.6614 22.1149 13.6596 22.1131 13.6596L21.139 15.117C21.3816 15.2854 21.6405 15.4266 21.9121 15.5406C22.9875 15.9878 24.0882 15.9661 25.1727 15.4954C25.9566 15.155 26.5722 14.6372 26.9922 13.98L25.5113 12.9897ZM30.222 5.59766V13.6976L31.4821 14.2081L30.767 15.8774L29.3766 15.298C29.0652 15.1622 28.8515 14.9559 28.6922 14.7223C28.5383 14.4851 28.4243 14.1574 28.4243 13.7193V5.59766H30.222ZM33.4845 11.6355C33.4845 10.9457 33.7904 10.3265 34.272 9.90652L32.9793 8.4654C32.1031 9.24027 31.5509 10.3718 31.5509 11.6319C31.5491 12.8938 32.1013 14.0271 32.9757 14.802L34.2666 13.3608C33.7868 12.939 33.4845 12.3235 33.4845 11.6355V11.6355ZM35.7801 13.933C35.5266 13.933 35.2804 13.8895 35.0523 13.8135L34.4349 15.6474C34.8568 15.7887 35.3076 15.8665 35.7783 15.8665C37.8241 15.8683 39.5314 14.4163 39.9278 12.4882L38.0305 12.1008C37.8151 13.149 36.8899 13.9348 35.7801 13.933V13.933ZM35.7855 7.40448C35.3166 7.40448 34.8658 7.48052 34.444 7.61992L35.0559 9.45572C35.2859 9.37968 35.5303 9.33804 35.7837 9.33804C36.8953 9.33985 37.8223 10.1292 38.0323 11.1793L39.9297 10.7954C39.5404 8.8637 37.8332 7.40629 35.7855 7.40448V7.40448Z" fill="white"/>
</g>
<defs>
<clipPath id="clip0_3805_228">
<rect width="42.337" height="20" fill="white" transform="translate(0.663086 0.691406)"/>
</clipPath>
</defs>
</svg>
